<?xml version="1.0" encoding="iso-8859-1"?>
<!-- Uploaded to: SVG Repo, www.svgrepo.com, Generator: SVG Repo Mixer Tools -->
<svg fill="#000000" version="1.1" id="Layer_1" xmlns="http://www.w3.org/2000/svg" xmlns:xlink="http://www.w3.org/1999/xlink" 
	 viewBox="0 0 512.005 512.005" xml:space="preserve">
<g>
	<g>
		<path d="M327.972,101.112L257.194,0l-70.777,101.112c-29.3,41.855-13.096,100.491,33.927,120.47
			c11.321,4.81,23.774,7.471,36.851,7.471c13.076,0,25.53-2.661,36.852-7.471C341.069,201.604,357.271,142.968,327.972,101.112z"/>
	</g>
</g>
<g>
	<g>
		
			<rect x="99.599" y="366.446" transform="matrix(0.7071 -0.7071 0.7071 0.7071 -274.4518 218.5157)" width="53.894" height="148.209"/>
	</g>
</g>
<g>
	<g>
		<path d="M450.994,260.047c-7.893-7.893-20.689-7.893-28.582,0l-0.009-0.009l-95.263,95.283l0.013-0.042
			c-11.271,11.783-27.202,19.185-44.656,19.185h-70.754v-40.421h70.754c11.307,0,21.043-8.801,21.043-19.628
			c0-12.332-9.634-20.793-20.202-20.793h-76.226c-16.19,0-31.414,6.307-42.865,17.758l-35.798,35.798l91.167,91.167l59.664-9.944
			c24.93-4.155,47.939-15.996,65.811-33.867l105.309-105.309c0.135-0.135,0.261-0.272,0.391-0.411
			c0.066-0.066,0.139-0.121,0.203-0.186C458.887,280.736,458.887,267.94,450.994,260.047z"/>
	</g>
</g>
</svg>